# xmcd
#
# Track frame offsets:
#	150
#	10724
#	30263
#	48294
#	64461
#	80360
#	100084
#	110816
#	126608
#	142002
#	161986
#	177926
#	197212
#
# Disc length: 2895 seconds
#
# Revision: 0
# Processed by: cddbd v1.5.2PL0 Copyright (c) Steve Scherf et al.
# Submitted via: audiograbber 1.83.01
#
DISCID=b80b4d0d
DTITLE=3Stil - Atzen und Kiez
DYEAR=1900
DGENRE=Hip Hop/Rap
TTITLE0=Intro feat. D.J. BMHO
TTITLE1=Wir sind da
TTITLE2=Bad Days feat. Noisy Noergla
TTITLE3=Berlin bei Nacht
TTITLE4=Visionen feat. D.J. BMHO
TTITLE5=Wir sind alle Brüder
TTITLE6=Ich will
TTITLE7=Mit Bummz
TTITLE8=Lasst euch nicht runterziehen
TTITLE9=Atzen und Kiez
TTITLE10=Was ist es?
TTITLE11=Sommertag
TTITLE12=Ich kann allett...
EXTD=
EXTT0=
EXTT1=
EXTT2=
EXTT3=
EXTT4=
EXTT5=
EXTT6=
EXTT7=
EXTT8=
EXTT9=
EXTT10=
EXTT11=
EXTT12=
PLAYORDER=
